# Blender v3.3.1 OBJ File: 'intersection.blend'
# www.blender.org
mtllib indicator.mtl
o Cone
v -0.086603 0.314286 -0.050000
v -0.086603 0.314286 0.050000
v -0.000000 0.314286 0.100000
v 0.086603 0.314286 0.050000
v 0.086602 0.314286 -0.050000
v -0.000000 0.314286 -0.100000
v -0.000000 0.000000 0.000000
vt 0.105380 0.096373
vt 0.060538 0.070483
vt 0.105380 0.044594
vt 0.060538 0.018705
vt 0.015697 0.044594
vt 0.015697 0.096373
vt 0.062330 0.131416
vt 0.010345 0.101402
vt 0.062330 0.011361
vt 0.060538 0.122262
vt 0.010345 0.041374
vt 0.114316 0.041374
vt 0.114316 0.101402
vn -0.9641 -0.2657 0.0000
vn -0.4820 -0.2657 0.8349
vn 0.4820 -0.2657 0.8349
vn 0.9641 -0.2657 -0.0000
vn 0.0000 1.0000 -0.0000
vn 0.4820 -0.2657 -0.8349
vn -0.4820 -0.2657 -0.8349
usemtl Material
s off
f 1/1/1 7/2/1 2/3/1
f 2/3/2 7/2/2 3/4/2
f 3/4/3 7/2/3 4/5/3
f 4/5/4 7/2/4 5/6/4
f 5/7/5 6/8/5 2/9/5
f 5/6/6 7/2/6 6/10/6
f 6/10/7 7/2/7 1/1/7
f 6/8/5 1/11/5 2/9/5
f 2/9/5 3/12/5 4/13/5
f 4/13/5 5/7/5 2/9/5
